<svg version="1.1" viewBox="0.0 0.0 960.0 540.0" fill="none" stroke="none" stroke-linecap="square" stroke-miterlimit="10" xmlns:xlink="http://www.w3.org/1999/xlink" xmlns="http://www.w3.org/2000/svg"><clipPath id="g83b0a7cd5d_0_8.0"><path d="m0 0l960.0 0l0 540.0l-960.0 0l0 -540.0z" clip-rule="nonzero"/></clipPath><g clip-path="url(#g83b0a7cd5d_0_8.0)"><path fill="#111111" d="m0 0l960.0 0l0 540.0l-960.0 0z" fill-rule="evenodd"/><path fill="#cc0000" d="m619.84845 -0.0011826771l-139.84665 139.31546l-139.84665 -139.31546z" fill-rule="evenodd"/><path fill="#990000" d="m619.84845 -0.0011826771l-139.82355 139.31546l0 -139.31546z" fill-rule="evenodd"/><path fill="#fafafa" d="m-15.370079 -9.92126l997.5433 0l0 561.7323l-997.5433 0z" fill-rule="evenodd"/><path fill="#b8191d" d="m279.85828 287.34384l0 0c0 -110.04819 89.60651 -199.25986 200.14172 -199.25986l0 0c53.08087 0 103.98773 20.993385 141.5216 58.361855c37.533813 37.36847 58.620117 88.050995 58.620117 140.898l0 0c0 110.04816 -89.60651 199.25983 -200.14172 199.25983l0 0c-110.53522 0 -200.14172 -89.21167 -200.14172 -199.25983z" fill-rule="evenodd"/><path fill="#010306" d="m437.41733 177.52756l0 0c0 -24.030914 19.06491 -43.51181 42.582672 -43.51181l0 0c11.29364 0 22.124695 4.5842743 30.110504 12.744308c7.9858093 8.160049 12.4721985 19.227448 12.4721985 30.767502l0 0c0 24.030914 -19.064941 43.51181 -42.582703 43.51181l0 0c-23.517761 0 -42.582672 -19.480896 -42.582672 -43.51181z" fill-rule="evenodd"/><path fill="#010306" d="m325.2126 373.14542l0 0c0 -60.942657 69.30069 -110.346436 154.78741 -110.346436l0 0c85.486694 0 154.78741 49.403778 154.78741 110.346436l0 0c0 60.942688 -69.30072 110.346466 -154.78741 110.346466l0 0c-85.486725 0 -154.78741 -49.403778 -154.78741 -110.346466z" fill-rule="evenodd"/><path stroke="#fdfdfd" stroke-width="8.0" stroke-linejoin="round" stroke-linecap="butt" d="m325.2126 373.14542l0 0c0 -60.942657 69.30069 -110.346436 154.78741 -110.346436l0 0c85.486694 0 154.78741 49.403778 154.78741 110.346436l0 0c0 60.942688 -69.30072 110.346466 -154.78741 110.346466l0 0c-85.486725 0 -154.78741 -49.403778 -154.78741 -110.346466z" fill-rule="evenodd"/><path fill="#010306" d="m463.5433 187.55511l32.91339 0l0 141.10236l-32.91339 0z" fill-rule="evenodd"/></g></svg>